<svg id="レイヤー_1" data-name="レイヤー 1" xmlns="http://www.w3.org/2000/svg" viewBox="0 0 554.67 137.31"><defs><style>.cls-1{fill:none;stroke:#000;stroke-miterlimit:10;stroke-width:5px;}</style></defs><title>wdwTitleLine2</title><g id="Title"><path class="cls-1" d="M53.89,72.51a2.5,2.5,0,0,1,1.87-1,5.36,5.36,0,0,1,3.53.94,4.11,4.11,0,0,1,1.08,3.24,18.8,18.8,0,0,1-1,3.67q-2.24,6.89-4.87,17-.65,2.31-1,4t-.68,2.88q-1.73,7.42-3,11.16a3.33,3.33,0,0,1-1.51,1.69,4.6,4.6,0,0,1-2.3.61,5.78,5.78,0,0,1-2.41-.54,4,4,0,0,1-1.69-1.26q-2.23-4.39-5.51-12T31.21,89.63q-4.47,11.3-8,21.82l-.47,1.4q-.25.76-.54,1.55a4,4,0,0,1-1.44,1.69,3.74,3.74,0,0,1-2.09.61,6.18,6.18,0,0,1-2.52-.54,3.5,3.5,0,0,1-1.65-1.26,24.81,24.81,0,0,1-2-4.9q-1-3.31-2.77-9.29l-1.8-6.12q-1.87-6-3.24-12.24a58.12,58.12,0,0,1-1.37-7.49,2.72,2.72,0,0,1,1.51-2.41,5.87,5.87,0,0,1,3-.9,3.61,3.61,0,0,1,1.8.54,2.65,2.65,0,0,1,1.22,1.84q2.52,13.46,7.42,31.25,1.92-4.46,4.23-10.87t4.36-12.46l.64-2.16A2.67,2.67,0,0,1,29,78a5.22,5.22,0,0,1,2.41-.61,4.08,4.08,0,0,1,2.59.79,3.6,3.6,0,0,1,1.3,1.73q.07.29,2.88,8.57a170.76,170.76,0,0,0,6.7,16.7,136.3,136.3,0,0,0,3.46-13.61l1.08-4.75Q51.34,79.19,52.57,75A6.25,6.25,0,0,1,53.89,72.51Z" transform="translate(2 2)"/><path class="cls-1" d="M63,95.86a20.88,20.88,0,0,1,2.66-5.08A11.74,11.74,0,0,1,71,87a17.2,17.2,0,0,1,6.41-1.49,22.86,22.86,0,0,1,5.87.79,7,7,0,0,1,4.14,2.45,12.69,12.69,0,0,1,2.66,7.34,6.28,6.28,0,0,1-.83,3.31,17.59,17.59,0,0,1-2.34,3A6.64,6.64,0,0,1,83,104.13a32.17,32.17,0,0,1-5.22.43,30.63,30.63,0,0,1-4-.32q-2.38-.32-4.61-.83a9.64,9.64,0,0,0,.72,2.81,5.82,5.82,0,0,0,1.37,2.09,6.51,6.51,0,0,0,3,1.73,18.11,18.11,0,0,0,4,.36,13.24,13.24,0,0,0,4.82-.86,9.15,9.15,0,0,1,3-.65,2.62,2.62,0,0,1,2.09.83,3.12,3.12,0,0,1,.72,2.12,3.38,3.38,0,0,1-2.09,3A16.57,16.57,0,0,1,82,116.51a23.31,23.31,0,0,1-4.36.54,18,18,0,0,1-6.55-1.22,13.93,13.93,0,0,1-5.26-3.46,15.14,15.14,0,0,1-2.74-4.86,18.06,18.06,0,0,1-1-6.08A16,16,0,0,1,63,95.86Zm11.52-3.6A6.86,6.86,0,0,0,72,94a12.6,12.6,0,0,0-1.76,2.2,5.82,5.82,0,0,0-.61,2.27A30.31,30.31,0,0,0,77.1,99a10,10,0,0,0,4.79-.94,2.78,2.78,0,0,0,1.69-2.45,3.39,3.39,0,0,0-1.87-2.74,7.12,7.12,0,0,0-4-1.22A8.75,8.75,0,0,0,74.57,92.26Z" transform="translate(2 2)"/><path class="cls-1" d="M97.18,97.51l.07-6.84q0-4.17-.22-9.14a39.5,39.5,0,0,0-.5-4.18,46.79,46.79,0,0,1-.58-6q0-3.31,3.31-3.31a3.63,3.63,0,0,1,3,1.12,7.37,7.37,0,0,1,1.24,3.48,82.52,82.52,0,0,1,.72,11.66q0,2-.14,6a9.82,9.82,0,0,1,3.56-3.38A8.9,8.9,0,0,1,112,85.7a13.9,13.9,0,0,1,10.8,5.18,21.69,21.69,0,0,1,2.2,4.28,12.1,12.1,0,0,1,1,4.28,23.45,23.45,0,0,1-.68,5.83,16.37,16.37,0,0,1-2.41,5.18,13.94,13.94,0,0,1-4.41,4.06,11.55,11.55,0,0,1-6.08,1.58,11.83,11.83,0,0,1-5.44-1.22,10.42,10.42,0,0,1-3.85-3.24,9.55,9.55,0,0,1-1.58,3.56A3.45,3.45,0,0,1,98.74,117a3.37,3.37,0,0,1-2.16-.68,2.46,2.46,0,0,1-.86-2.05,9.53,9.53,0,0,1,.43-2.52q.43-2.09.68-3.85a30.92,30.92,0,0,0,.25-4.28Q97.11,99.64,97.18,97.51Zm19.32,10.23a9.33,9.33,0,0,0,2.38-6.73,10.91,10.91,0,0,0-2.09-6.7,5.06,5.06,0,0,0-2.05-1.51,6.59,6.59,0,0,0-2.63-.58A7.65,7.65,0,0,0,107,94a6.91,6.91,0,0,0-2.38,4.86q-.29,4.18-.29,7.2A8.33,8.33,0,0,0,107,109a6.18,6.18,0,0,0,3.64,1.26A7.84,7.84,0,0,0,116.5,107.74Z" transform="translate(2 2)"/><path class="cls-1" d="M150.6,108q.29-3.31.29-8.35,0-9.22-.79-17.78-.43-5.33-.43-7.56a3,3,0,0,1,1.51-2.56,5.39,5.39,0,0,1,3.1-1q1,0,2.45.14c1,.1,1.66.14,2.09.14q16.2,0,23.83,8.71,4.85,5.58,4.85,14.87a23.07,23.07,0,0,1-1.4,7.81,16,16,0,0,1-4,6.37,35.65,35.65,0,0,1-5.29,4.36,22.66,22.66,0,0,1-6.7,2.7,44.41,44.41,0,0,1-10.76,1.08,18.7,18.7,0,0,1-6.59-.94q-2.41-.94-2.41-2.74A45.15,45.15,0,0,1,150.6,108Zm20.3.61a14.55,14.55,0,0,0,8.93-14.09A22.07,22.07,0,0,0,178.39,86a12,12,0,0,0-5-5.58A19.32,19.32,0,0,0,166.84,78a49.83,49.83,0,0,0-9.36-.76q0,.72.14,3.31t.14,4.1l.07,1.58q.43,7.49.43,11.88a78.23,78.23,0,0,1-.79,12,28.69,28.69,0,0,0,4.54.29,21.85,21.85,0,0,0,8.9-1.79Z" transform="translate(2 2)"/><path class="cls-1" d="M194.23,92.83a22.85,22.85,0,0,1,5.4-5.51A9.9,9.9,0,0,1,203,86.06a19.16,19.16,0,0,1,4.18-.54,13.1,13.1,0,0,1,4.57.9,15.35,15.35,0,0,1,3.92,2.09,10.3,10.3,0,0,1,3.67,4.5,16.57,16.57,0,0,1,1,6.08,3.89,3.89,0,0,1-1.69,2.92,5.6,5.6,0,0,1-3.64,1.4l-2.74-.07q-2.09,0-6,.14l-1.51.07q-1.58.15-2.38.14a23.72,23.72,0,0,1-3.17-.29,7.47,7.47,0,0,0,2.52,5.29,7.29,7.29,0,0,0,4.82,1.91q4.54,0,6.34-1.8,1.51-1.08,2-1.37a3.32,3.32,0,0,1,1.58-.29,2.53,2.53,0,0,1,2,1.08,3,3,0,0,1-.61,4.64,23.48,23.48,0,0,1-4,2.63,18.47,18.47,0,0,1-3.74,1,22.89,22.89,0,0,1-4,.43,13.22,13.22,0,0,1-5.62-1.48,13.53,13.53,0,0,1-4.61-3.28,15.8,15.8,0,0,1-2.63-5.11,21.46,21.46,0,0,1-1.12-6.91A12.9,12.9,0,0,1,194.23,92.83Zm19.87,5a5.68,5.68,0,0,0-1.3-3.42,9.81,9.81,0,0,0-4.3-2.7,4.21,4.21,0,0,0-1.15-.14,8.7,8.7,0,0,0-5.58,1.8,7.07,7.07,0,0,0-2.7,4.61q3.6.22,7.56.22a55.31,55.31,0,0,0,7.49-.36Z" transform="translate(2 2)"/><path class="cls-1" d="M248.56,102.41a5.15,5.15,0,0,1,2.27,2.27,9.09,9.09,0,0,1,.58,3.6,7.33,7.33,0,0,1-1.51,4.57,10,10,0,0,1-3.89,3.06,11,11,0,0,1-3.56.86q-1.91.14-4.57.14a20.66,20.66,0,0,1-3.71-.43,18.14,18.14,0,0,1-3.13-.79,15.53,15.53,0,0,1-3.89-3,5.22,5.22,0,0,1-1.58-3.53,3,3,0,0,1,.94-2.3A3.46,3.46,0,0,1,229,106a3.3,3.3,0,0,1,1.55.4,2.48,2.48,0,0,1,1,.9,5.42,5.42,0,0,0,2.66,2.81A8.45,8.45,0,0,0,238,111q6.84,0,6.84-2.45a1.6,1.6,0,0,0-.32-1,5.21,5.21,0,0,0-.9-.83A15.23,15.23,0,0,0,241,105.4a24.94,24.94,0,0,0-3-1.08,28.06,28.06,0,0,1-5.76-1.94A12.21,12.21,0,0,1,228,99a8.22,8.22,0,0,1-1.66-5.22,6.08,6.08,0,0,1,1.4-3.71A9.43,9.43,0,0,1,231,87.26a27.68,27.68,0,0,1,4.25-1.08,25.7,25.7,0,0,1,4-.58,22,22,0,0,1,3.6.32,7.15,7.15,0,0,1,3,1A15.24,15.24,0,0,1,249,89.33a4,4,0,0,1,1.22,2.84,4.58,4.58,0,0,1-.36,1.69A1.9,1.9,0,0,1,249,95a5.9,5.9,0,0,1-2.51.53,1.49,1.49,0,0,1-1-.36,11.29,11.29,0,0,1-1-1.15,3.2,3.2,0,0,0-1.6-1.49q-.86-.22-2.52-.54a14.49,14.49,0,0,0-2.23-.32,8.34,8.34,0,0,0-3.42.72q-1.62.72-1.62,1.94,0,1.44,2.38,2.45A20.13,20.13,0,0,0,238.84,98q1.84.5,2.27.65a12.28,12.28,0,0,1,2.63,1,20.3,20.3,0,0,1,2.56,1.44Q246.86,101.44,248.56,102.41Z" transform="translate(2 2)"/><path class="cls-1" d="M264.58,71.74a3.67,3.67,0,0,1,1.84,3.35,3,3,0,0,1-1.51,2.63,6.79,6.79,0,0,1-3.74,1,3.36,3.36,0,0,1-2.88-1.08,3.72,3.72,0,0,1-.79-2.23,11.07,11.07,0,0,1,.5-3.56,2,2,0,0,1,2.23-1.4A9.91,9.91,0,0,1,264.58,71.74Zm-5.8,28.4V98.05a61.48,61.48,0,0,0-.28-6.54q-.32-3-.4-3.71a2.21,2.21,0,0,1,1.08-1.51,3.23,3.23,0,0,1,1.8-.72,7.69,7.69,0,0,1,2.77.54,3,3,0,0,1,1.75,1.29,33,33,0,0,1,.36,4.1q0,3.17.29,10.37l.07,2.81.14,2.74q.07,1.15.14,2.74t.07,3.6a2.75,2.75,0,0,1-1.33,2.3,4.76,4.76,0,0,1-2.77.94,3.76,3.76,0,0,1-2.92-.94,4.37,4.37,0,0,1-.83-3Z" transform="translate(2 2)"/><path class="cls-1" d="M278.11,113q0-1.37,2-4.1a10.25,10.25,0,0,1-5.44-4.1,12.11,12.11,0,0,1-2-6.91,9.27,9.27,0,0,1,1.22-4.72,16.86,16.86,0,0,1,3.38-4.07q3.67-3.31,10.15-3.31A23,23,0,0,1,293.83,87q4.54-3.89,8-3.89a4.8,4.8,0,0,1,3.13.83,3.57,3.57,0,0,1,1,2.84,2.18,2.18,0,0,1-.61,1.48,2,2,0,0,1-1.55.68l-2.59-.07a5.35,5.35,0,0,0-3.53.94A13.69,13.69,0,0,1,300,94a18,18,0,0,1,.9,5.9q0,4.39-6,8.21a18.67,18.67,0,0,1-8.71,2.09l-1,1a1.34,1.34,0,0,0-.4.76q0,.79,1.37,1.22a20.08,20.08,0,0,0,4.18.65,23.08,23.08,0,0,1,4.72.9,16.92,16.92,0,0,1,4.14,1.69,8.07,8.07,0,0,1,2.63,3,9.17,9.17,0,0,1,.76,4,6.33,6.33,0,0,1-2.84,5.22A19.23,19.23,0,0,1,293,131.8a26.72,26.72,0,0,1-6.7,1,18.22,18.22,0,0,1-5.87-.83,19.81,19.81,0,0,1-4.57-2.27,7.69,7.69,0,0,1-2.38-2.74,7.39,7.39,0,0,1-.86-3.46q0-1.44,2.2-3.89a13.32,13.32,0,0,1,4.28-3.38,4.37,4.37,0,0,1-.5-.65A5.9,5.9,0,0,1,278.11,113Zm13.47-10.52a6.13,6.13,0,0,0,2.3-5.08,5.29,5.29,0,0,0-5.76-5.69q-5.69,0-7.42,2.52a7,7,0,0,0-.86,2.2,10.49,10.49,0,0,0-.43,2.48,4.27,4.27,0,0,0,.9,2.48,7.06,7.06,0,0,0,2.41,2.09,6.49,6.49,0,0,0,3.17.83A8.84,8.84,0,0,0,291.58,102.51Zm-9.9,23.62a13.06,13.06,0,0,0,4.86.9,18.39,18.39,0,0,0,5.94-1q3.06-1,3.06-2.77,0-2.52-4.46-3.24-4.9-.86-7.7-1.58a6.85,6.85,0,0,1-1.94,2.59,18.81,18.81,0,0,0-1.55,1.69,2.14,2.14,0,0,0-.47,1.33q0,1.15,2.26,2Z" transform="translate(2 2)"/><path class="cls-1" d="M345.3,111.45a4.91,4.91,0,0,1,1.15.43.71.71,0,0,1,.36.65,3.35,3.35,0,0,1-1.26,2.84,4.72,4.72,0,0,1-3.13,1.12A6.1,6.1,0,0,1,338,115a9,9,0,0,1-2.3-4.61,15.48,15.48,0,0,1-.29-3.38q0-1.22.14-4t.14-4.61a7.28,7.28,0,0,0-1.4-4.43A4.6,4.6,0,0,0,330.4,92a6.65,6.65,0,0,0-3.17.9,5.26,5.26,0,0,0-2.3,2.2,15.8,15.8,0,0,0-1.51,4.54,49.72,49.72,0,0,0-.79,9q0,2.23.07,3.46v1.12a5.08,5.08,0,0,1-.14,1.51,3.61,3.61,0,0,1-.61,1.26,2.83,2.83,0,0,1-1.12.61,4.48,4.48,0,0,1-1.4.25,5.4,5.4,0,0,1-2.52-.86,3.13,3.13,0,0,1-1.73-1.94l-.07-1.22a9.28,9.28,0,0,1,.14-1.51,53,53,0,0,0,.86-8.78q0-1.66-.07-2.59L316,96.61a7,7,0,0,0-.86-3.35q-.86-1.62-2-1.62a3,3,0,0,0-1,.25,3.1,3.1,0,0,1-1.08.25,2.44,2.44,0,0,1-1.55-.72,2,2,0,0,1-.83-1.51,3.18,3.18,0,0,1,1-2.45,11.3,11.3,0,0,1,2.12-1.37,5.49,5.49,0,0,1,2.41-.5,6.69,6.69,0,0,1,1.87.22,9.75,9.75,0,0,1,1.94.94,5.34,5.34,0,0,1,1.51,1.58,10.73,10.73,0,0,1,1.44,3.46,11.14,11.14,0,0,1,4.64-4.86,15.67,15.67,0,0,1,7.12-1.42,7.3,7.3,0,0,1,3.56,1.08,14,14,0,0,1,3.24,2.54,13.57,13.57,0,0,1,2.16,3.92,12.32,12.32,0,0,1,.86,4.21q0,1.08-.14,3.53a37.31,37.31,0,0,0-.22,4.1q0,5,1.94,6.19A11.45,11.45,0,0,0,345.3,111.45Z" transform="translate(2 2)"/><path class="cls-1" d="M417.08,72.51a2.5,2.5,0,0,1,1.87-1,5.36,5.36,0,0,1,3.55,1,4.12,4.12,0,0,1,1.08,3.24,18.88,18.88,0,0,1-1,3.67q-2.23,6.84-4.9,16.92-.65,2.31-1,4t-.68,2.88q-1.73,7.42-3,11.16a3.34,3.34,0,0,1-1.51,1.69,4.6,4.6,0,0,1-2.3.61,5.78,5.78,0,0,1-2.41-.54,4,4,0,0,1-1.69-1.26q-2.23-4.39-5.51-12T394.4,89.63q-4.46,11.3-8,21.82l-.47,1.4q-.25.76-.54,1.55a4,4,0,0,1-1.44,1.69,3.73,3.73,0,0,1-2.09.61,6.18,6.18,0,0,1-2.52-.54,3.5,3.5,0,0,1-1.66-1.26,24.83,24.83,0,0,1-2-4.9q-1-3.31-2.77-9.29l-1.8-6.12q-1.87-6-3.24-12.24a58.22,58.22,0,0,1-1.37-7.48A2.72,2.72,0,0,1,368,72.46a5.88,5.88,0,0,1,3-.9,3.61,3.61,0,0,1,1.8.54A2.66,2.66,0,0,1,374,73.94q2.47,13.46,7.47,31.25,1.87-4.46,4.14-10.87T390,81.86l.72-2.16A2.67,2.67,0,0,1,392.2,78a5.22,5.22,0,0,1,2.41-.61,4.08,4.08,0,0,1,2.59.79,3.6,3.6,0,0,1,1.3,1.72q.07.29,2.88,8.57a170.77,170.77,0,0,0,6.7,16.7,136.38,136.38,0,0,0,3.42-13.61l1.08-4.75q1.94-7.63,3.17-11.81A6.27,6.27,0,0,1,417.08,72.51Z" transform="translate(2 2)"/><path class="cls-1" d="M455.27,96.43a18.62,18.62,0,0,1,.36,3.42,37.64,37.64,0,0,1-1.22,8q-5,9.07-14.69,9.07a13.67,13.67,0,0,1-7.34-2.38,13.31,13.31,0,0,1-5.18-5.47q-1.94-6.19-1.94-7.85a16.9,16.9,0,0,1,1.24-6.12,20.53,20.53,0,0,1,3.2-5.59,9.47,9.47,0,0,1,4.39-2.84,16.57,16.57,0,0,1,5.76-1.19,17.81,17.81,0,0,1,8.57,1.91,15.11,15.11,0,0,1,5.9,6.16A9.68,9.68,0,0,1,455.27,96.43Zm-6.84,3.85a11.61,11.61,0,0,0-.76-4.1,9.58,9.58,0,0,0-2.2-3.46,3.87,3.87,0,0,0-.79-.47,10.83,10.83,0,0,0-1.76-.65,9.2,9.2,0,0,0-2.56-.32,6.33,6.33,0,0,0-5.86,3.23,14.4,14.4,0,0,0-1.87,7.34,17.39,17.39,0,0,0,.4,2.74,10.68,10.68,0,0,0,.68,2.52,5.34,5.34,0,0,0,1.12,1.4,8.77,8.77,0,0,0,2.23,1.58,6,6,0,0,0,2.77.68,8.08,8.08,0,0,0,5.18-1.55,10.76,10.76,0,0,0,3.1-4.14,18.51,18.51,0,0,0,.32-4.79Z" transform="translate(2 2)"/><path class="cls-1" d="M459.62,88.62a2.61,2.61,0,0,1,.86-1.87,3.52,3.52,0,0,1,2.59-.86,6.58,6.58,0,0,1,3.64,1,5.5,5.5,0,0,1,2.27,3,13.25,13.25,0,0,1,3.78-3.1,9,9,0,0,1,4.36-1.15,8.51,8.51,0,0,1,4.82,1.44,4.29,4.29,0,0,1,1,6.7,3.26,3.26,0,0,1-2.44,1.47,1.91,1.91,0,0,1-1.12-.32,8.5,8.5,0,0,1-1.12-1,8.06,8.06,0,0,0-1.22-1,2.09,2.09,0,0,0-1.15-.32,6.38,6.38,0,0,0-2.16.36,2.81,2.81,0,0,0-1.37.86,17.72,17.72,0,0,0-1.69,3.24,8.74,8.74,0,0,0-.54,3.1q0,1.22-.07,1.94l-.07,4.1q0,.94.07,2.09t.14,1.73a34,34,0,0,1,.22,3.74,3,3,0,0,1-.94,2.16,3.13,3.13,0,0,1-2.3.94A5,5,0,0,1,464,116a3.8,3.8,0,0,1-1-3.06l-.07-4.61q-.07-1.37-.07-3.89l.07-4.75q.14-3.46.14-5.62a3.18,3.18,0,0,0-.32-1.44,3.73,3.73,0,0,0-1.26-1.3A3.52,3.52,0,0,1,459.62,88.62Z" transform="translate(2 2)"/><path class="cls-1" d="M490.73,116.41a2.31,2.31,0,0,1-1.22-1.08,29.31,29.31,0,0,1-.79-7.56q0-8.64.29-14,.29-6.41.29-12.31a42.26,42.26,0,0,0-.43-5q-.07-.58-.22-2.09t-.15-2.86A3.12,3.12,0,0,1,489.62,69a4.39,4.39,0,0,1,2.92-.94,3.17,3.17,0,0,1,2.34.9,3.26,3.26,0,0,1,.9,2.41q0,2.3.14,6.48.14,3.89.14,5.83,0,2.16-.14,5.76-.15,2.16-.14,3.17,0,3.17.07,5.26,2.66-2.66,7-6.26a61.52,61.52,0,0,1,6.7-5,9.25,9.25,0,0,1,3.31-1.51,5,5,0,0,1,2.59.65,2.06,2.06,0,0,1,1,1.77,3.61,3.61,0,0,1-1.66,3.38l-8.14,6A5.5,5.5,0,0,1,509,99.12q1.11,1.73,2.7,4.68a47,47,0,0,0,3,5,3.19,3.19,0,0,0,2.41,1.66l1.8-.07a1.11,1.11,0,0,1,.9.58,2.92,2.92,0,0,1,.4,1.66,3,3,0,0,1-1.62,2.66,6.85,6.85,0,0,1-8.6-1.19,24.63,24.63,0,0,1-4.1-5.94L504.35,105q-1-2-1.55-2.88a2.72,2.72,0,0,0-1.3-1.1l-5.76,4.61.29,7.85a3.25,3.25,0,0,1-1,2.66,3,3,0,0,1-1.91.79A5.44,5.44,0,0,1,490.73,116.41Z" transform="translate(2 2)"/><path class="cls-1" d="M547,101.76a5.15,5.15,0,0,1,2.27,2.27,9.09,9.09,0,0,1,.58,3.6,7.32,7.32,0,0,1-1.51,4.57,10,10,0,0,1-3.89,3.06,17.24,17.24,0,0,1-4.21,1.22,24.28,24.28,0,0,1-3.92.43,20.66,20.66,0,0,1-3.71-.43,18.14,18.14,0,0,1-3.13-.79,15,15,0,0,1-3.85-3.17A5.82,5.82,0,0,1,524,108.7a2.87,2.87,0,0,1,.94-2.27,3.56,3.56,0,0,1,2.45-.83,2.71,2.71,0,0,1,1.51.54,3.13,3.13,0,0,1,1.08,1.12,5.42,5.42,0,0,0,2.66,2.81,8.45,8.45,0,0,0,3.82.94,13,13,0,0,0,4.68-.83q2.16-.83,2.16-2.27a1.6,1.6,0,0,0-.32-1,5.21,5.21,0,0,0-.9-.83,8.71,8.71,0,0,0-3-1.19l-2.59-.61a28.06,28.06,0,0,1-5.76-1.94,14.1,14.1,0,0,1-4.46-3.24,7,7,0,0,1-1.66-4.82,7.29,7.29,0,0,1,1.44-4.07,8.41,8.41,0,0,1,3.24-3,41.41,41.41,0,0,1,8.5-1.66,22,22,0,0,1,3.6.32,7.15,7.15,0,0,1,3,1,15.24,15.24,0,0,1,3.06,2.44,4,4,0,0,1,1.22,2.84,4.58,4.58,0,0,1-.36,1.69A1.9,1.9,0,0,1,547.5,95a5.9,5.9,0,0,1-2.52.5,1.49,1.49,0,0,1-1-.36A11.3,11.3,0,0,1,543,94a3.2,3.2,0,0,0-1.6-1.44q-.86-.22-2.52-.54a14.49,14.49,0,0,0-2.23-.32,7.29,7.29,0,0,0-3.42.94q-1.77.94-1.76,2.16a1.14,1.14,0,0,0,.54,1,8.71,8.71,0,0,0,1.15.65c.41.19.68.31.83.36A20.13,20.13,0,0,0,537.32,98q1.84.5,2.27.65a18.4,18.4,0,0,1,5.18,1.8Q545.34,100.79,547,101.76Z" transform="translate(2 2)"/><path class="cls-1" d="M5.68,4q2.22,0,8.47.14,6.91.33,10.45.33,2.88,0,7-.29,2.79-.14,3.54-.14a21.85,21.85,0,0,1,7.63,1.43,5.13,5.13,0,0,1,1.48.86A2.1,2.1,0,0,1,44.83,8a3.62,3.62,0,0,1-1.15,2.7,3.87,3.87,0,0,1-2.8,1.12,46,46,0,0,1-5.26-.43,33.29,33.29,0,0,0-5.35-.5q-2.22,0-3.37.07-.25,2.38-.25,11.38,0,10.73.74,21.74l.16,2.09q0,3-3.87,3-3,0-4.11-1.26A5.85,5.85,0,0,1,18.5,44q0-5.11-.33-12.74-.33-6.33-.33-9,0-1.8.49-11l-9.62.07a18.64,18.64,0,0,1-6.4-.82Q.5,9.8.5,7.13.5,4,5.68,4Z" transform="translate(2 2)"/><path class="cls-1" d="M77.5,48.32a7.42,7.42,0,0,1-3.58,1.08,14.73,14.73,0,0,1-5-.68,8.19,8.19,0,0,1-3.42-2.56,14.7,14.7,0,0,1-5.84,2.48,31.5,31.5,0,0,1-6.83.83,13.81,13.81,0,0,1-8.33-2.41A8.24,8.24,0,0,1,41.21,40a6.16,6.16,0,0,1,1.23-3.71,11.4,11.4,0,0,1,3.37-3,21,21,0,0,1,5.43-2.12,26.17,26.17,0,0,1,6.26-.75,17.93,17.93,0,0,1,4.11.58,18.61,18.61,0,0,1,3.7,1.22V31q0-3.89-2.14-5.36T56.26,24.2a7.88,7.88,0,0,0-2.76.5,31.75,31.75,0,0,0-3,1.37,10.29,10.29,0,0,1-4.36,1.08,1.8,1.8,0,0,1-1.4-.9,2.84,2.84,0,0,1-.66-1.62A4.32,4.32,0,0,1,46.34,21a16.64,16.64,0,0,1,5.39-2.27A24.06,24.06,0,0,1,57.32,18a23.08,23.08,0,0,1,5.67.83,16.19,16.19,0,0,1,5.26,2.27,13.72,13.72,0,0,1,3.82,4.36,11.15,11.15,0,0,1,1.36,5.44q0,.94-.16,2.81t-.16,3.46a17.1,17.1,0,0,1-.16,1.94,22.56,22.56,0,0,0-.16,2.52,1.85,1.85,0,0,0,.71,1.47,2.62,2.62,0,0,0,1.73.61l2.3-.07a1.74,1.74,0,0,1,1.4.58,2.14,2.14,0,0,1,.49,1.44A3.12,3.12,0,0,1,77.5,48.32ZM58.87,43.13a31,31,0,0,0,5.76-2.38,15.4,15.4,0,0,0,.4-3.24,20.56,20.56,0,0,0-7.53-1.86,15.69,15.69,0,0,0-6,1.08,3.85,3.85,0,0,0-2.59,3.78,2.75,2.75,0,0,0,1.32,2.3,4.62,4.62,0,0,0,2.71.94A23,23,0,0,0,58.87,43.13Z" transform="translate(2 2)"/><path class="cls-1" d="M87.22,48.89a2.54,2.54,0,0,1-1.4-1.08,25.85,25.85,0,0,1-.9-7.56q0-8.64.33-14,.33-6.41.33-12.31a37.14,37.14,0,0,0-.49-5q-.08-.58-.25-2.09A25.78,25.78,0,0,1,84.68,4a3,3,0,0,1,1.27-2.59A5.5,5.5,0,0,1,89.28.51a3.91,3.91,0,0,1,2.67.9,3,3,0,0,1,1,2.41q0,2.3.16,6.48.16,3.89.16,5.83,0,2.16-.16,5.76-.17,2.16-.16,3.17,0,3.17.08,5.26,3-2.66,8-6.26a70.39,70.39,0,0,1,7.65-5,11.38,11.38,0,0,1,3.82-1.55,6.29,6.29,0,0,1,3,.65A2,2,0,0,1,116.73,20a3.92,3.92,0,0,1-.41,1.94,4.65,4.65,0,0,1-1.48,1.44l-10.61,6.77a10.49,10.49,0,0,1,3.08,2,23.22,23.22,0,0,1,2.59,3,63.05,63.05,0,0,0,4.48,5.9Q116.06,43,117.46,43l2.06-.07a1.3,1.3,0,0,1,1,.58,2.64,2.64,0,0,1,.45,1.66,3,3,0,0,1-1.85,2.66,8.53,8.53,0,0,1-4.15,1,8.28,8.28,0,0,1-5.67-2.2,24.85,24.85,0,0,1-4.69-5.94q-3.21-5.33-6.33-6.34L93,38l.33,7.85a3,3,0,0,1-1.15,2.72A3.76,3.76,0,0,1,90,49.4,7,7,0,0,1,87.22,48.89Z" transform="translate(2 2)"/><path class="cls-1" d="M126.5,25.31a24.64,24.64,0,0,1,6.17-5.51,12.33,12.33,0,0,1,3.83-1.29,24.83,24.83,0,0,1,4.77-.54,16.85,16.85,0,0,1,5.22.9,18.5,18.5,0,0,1,4.48,2,10.7,10.7,0,0,1,4.19,4.5,14.73,14.73,0,0,1,1.15,6.14q0,1.51-1.93,2.92a6.93,6.93,0,0,1-4.15,1.4l-3.12-.07q-2.39,0-6.83.14L138.5,36q-1.81.15-2.71.14a30.88,30.88,0,0,1-3.62-.29,7.16,7.16,0,0,0,2.88,5.29,9,9,0,0,0,5.51,1.91q5.18,0,7.24-1.8,1.73-1.08,2.3-1.37a4.27,4.27,0,0,1,1.81-.29,3,3,0,0,1,2.3,1.08,3.23,3.23,0,0,1,1,2.16,3.37,3.37,0,0,1-1.71,2.48A27.43,27.43,0,0,1,148.94,48a23.51,23.51,0,0,1-4.28,1,29.73,29.73,0,0,1-4.52.43,16.84,16.84,0,0,1-6.42-1.48,15.56,15.56,0,0,1-5.22-3.25,15.21,15.21,0,0,1-3-5.14,19.06,19.06,0,0,1-1.27-6.91A11.71,11.71,0,0,1,126.5,25.31Zm22.7,5a5.29,5.29,0,0,0-1.48-3.42,10.68,10.68,0,0,0-3.62-2.27,11.43,11.43,0,0,0-1.32-.43,5.46,5.46,0,0,0-1.32-.14,10.9,10.9,0,0,0-6.37,1.8A7,7,0,0,0,132,30.51q4.11.22,8.64.22a72.08,72.08,0,0,0,8.55-.41Z" transform="translate(2 2)"/><path class="cls-1" d="M161.5,21.1a2.49,2.49,0,0,1,1-1.87,4.39,4.39,0,0,1,3-.86,8.32,8.32,0,0,1,4.15,1,5.66,5.66,0,0,1,2.59,3,14.9,14.9,0,0,1,4.32-3.1,11.49,11.49,0,0,1,5-1.15,10.74,10.74,0,0,1,5.51,1.39,4.36,4.36,0,0,1,2.36,4,4.19,4.19,0,0,1-1.36,2.81,3.85,3.85,0,0,1-2.75,1.44,2.41,2.41,0,0,1-1.27-.32,9.48,9.48,0,0,1-1.27-1,9,9,0,0,0-1.4-1,2.64,2.64,0,0,0-1.32-.32,8.23,8.23,0,0,0-2.47.36,3.28,3.28,0,0,0-1.56.86,17.08,17.08,0,0,0-1.94,3.17,7.78,7.78,0,0,0-.62,3.1,18.3,18.3,0,0,1-.08,1.94l-.08,4.1q0,.94.08,2.09t.16,1.73a29.84,29.84,0,0,1,.25,3.74,2.81,2.81,0,0,1-1.07,2.16,3.85,3.85,0,0,1-2.63.94,6.26,6.26,0,0,1-3.6-.8,3.53,3.53,0,0,1-1.15-3.06l-.08-4.61q-.08-1.37-.08-3.89l.08-4.75q.16-3.46.16-5.62a2.86,2.86,0,0,0-.37-1.44,4,4,0,0,0-1.44-1.3Q161.5,22.51,161.5,21.1Z" transform="translate(2 2)"/><path class="cls-1" d="M194.09,24.38a1.48,1.48,0,0,1-.49-1.12,3.7,3.7,0,0,1,1.56-3.2A6.48,6.48,0,0,1,199,18.94a10.2,10.2,0,0,1,5.55,1.48,4.7,4.7,0,0,1,2.34,4.21q0,.72-.33,5.47-.33,5.47-.33,7.27a6.83,6.83,0,0,0,1.11,4.07,4,4,0,0,0,3.5,1.55q4.6,0,7.11-4.5a30.35,30.35,0,0,0,3.33-11q.33-2.88,1-6a6.44,6.44,0,0,1,.9-2.52,2.6,2.6,0,0,1,2.22-.79,8.91,8.91,0,0,1,2.51.43,3,3,0,0,1,1.85,1.15,5.66,5.66,0,0,1,.49,2.38,25,25,0,0,1-.58,4.68,41.67,41.67,0,0,0-.9,6.26,15.63,15.63,0,0,0,1.07,6.34,7,7,0,0,0,3.54,4.32Q236,44.89,236,45.83a2.75,2.75,0,0,1-1.23,2.38,4.18,4.18,0,0,1-2.39.86,8.52,8.52,0,0,1-5.47-1.94,11,11,0,0,1-3.5-4.82,27.74,27.74,0,0,1-3.33,3.78,12.93,12.93,0,0,1-4.07,2.42,16.68,16.68,0,0,1-6.09,1,12.51,12.51,0,0,1-7.77-2.66q-3.5-2.66-3.5-9.14,0-1.8.12-3.82t.12-2.88q.25-2.59.25-4.75a1.34,1.34,0,0,0-.53-1.08,1.85,1.85,0,0,0-1.19-.43,6.52,6.52,0,0,0-1.11.11,6.47,6.47,0,0,1-1.11.11A1.62,1.62,0,0,1,194.09,24.38Z" transform="translate(2 2)"/><path class="cls-1" d="M262.1,4q2.22,0,8.47.14,6.93.33,10.44.33,2.88,0,7-.29,2.79-.14,3.54-.14a21.85,21.85,0,0,1,7.64,1.43,5.14,5.14,0,0,1,1.48.86A2.1,2.1,0,0,1,301.25,8a3.62,3.62,0,0,1-1.15,2.7,3.87,3.87,0,0,1-2.8,1.12,45.94,45.94,0,0,1-5.26-.43,33.3,33.3,0,0,0-5.35-.5q-2.22,0-3.37.07-.25,2.38-.25,11.38,0,10.73.74,21.74L284,46.2q0,3-3.87,3-3,0-4.11-1.26a5.85,5.85,0,0,1-1.07-3.85q0-5.11-.33-12.74-.33-6.33-.33-9,0-1.8.49-11l-9.62.07a18.64,18.64,0,0,1-6.42-.76q-1.81-.76-1.81-3.42Q256.92,4,262.1,4Z" transform="translate(2 2)"/><path class="cls-1" d="M327,35.9a6.48,6.48,0,0,1,1.32,4.21,6.75,6.75,0,0,1-1.73,4.57,11.32,11.32,0,0,1-4.44,3.06A21.89,21.89,0,0,1,317.25,49a33.24,33.24,0,0,1-4.56.43,23.44,23.44,0,0,1-6.25-.94,17.35,17.35,0,0,1-5.72-2.66,5,5,0,0,1-2.34-4,2.71,2.71,0,0,1,1.06-2.28,4.44,4.44,0,0,1,2.8-.83,4.27,4.27,0,0,1,3,1.73,10.54,10.54,0,0,0,3.66,2.3,11.68,11.68,0,0,0,4.15.79q7.81,0,7.81-3.1a2,2,0,0,0-.49-1.26,3.17,3.17,0,0,0-.9-.83,7,7,0,0,0-2.06-.86q-1.32-.36-2.63-.61l-2-.4q-.66-.14-2.75-.5a16.11,16.11,0,0,1-4-1.22A16,16,0,0,1,301,31.51,6.42,6.42,0,0,1,299,26.69a6.82,6.82,0,0,1,1-3.35,6.26,6.26,0,0,1,2.59-2.56A21.75,21.75,0,0,1,308,18.69a23.43,23.43,0,0,1,5.5-.68,34.22,34.22,0,0,1,4.65.36,11.28,11.28,0,0,1,3.74,1A10,10,0,0,1,325,21.51a3.9,3.9,0,0,1,1,2.74,3.21,3.21,0,0,1-.41,1.55,2.39,2.39,0,0,1-1,1,7.54,7.54,0,0,1-2.3.43,2.69,2.69,0,0,1-1.23-.25,5.31,5.31,0,0,1-.86-.54l-.45-.36a8.37,8.37,0,0,0-2.4-1.57,10,10,0,0,0-3.87-.6,12.55,12.55,0,0,0-3.17.4,7.37,7.37,0,0,0-2.34,1,3.77,3.77,0,0,0-.91.76,1.33,1.33,0,0,0-.25.83q0,2,4.65,3t4.89,1q.49.15,2.75.72a17.12,17.12,0,0,1,3.25,1.08A14.2,14.2,0,0,1,327,35.9Z" transform="translate(2 2)"/><path class="cls-1" d="M332,24.38a1.43,1.43,0,0,1-.53-1.12,4.12,4.12,0,0,1,1.64-3.1q.49-.22,2-.72a8.59,8.59,0,0,1,7.73,1,4.94,4.94,0,0,1,2,4.21q0,.79-.33,3.38a46.27,46.27,0,0,0-.33,4.68,18.12,18.12,0,0,0,1.56,8.14,3.89,3.89,0,0,0,1.77,1.56,5.32,5.32,0,0,0,2.22.58,8.88,8.88,0,0,0,3.87-.72A13.92,13.92,0,0,0,356.8,40a7.44,7.44,0,0,0,2.26-3.6,31.15,31.15,0,0,0,.78-5.54q.16-2.3.33-3.38a51.29,51.29,0,0,0,.41-5.9,3.68,3.68,0,0,1,1-2.63,3.56,3.56,0,0,1,2.71-1,5.92,5.92,0,0,1,2.21.59,3.39,3.39,0,0,1,1.69,1.26,4.34,4.34,0,0,1,.49,2.38,5.55,5.55,0,0,1-.25,1.66,14.24,14.24,0,0,0-.58,4.32l.08,3.74a25.57,25.57,0,0,0,.82,7.56,12.21,12.21,0,0,0,1.15,2.34,18,18,0,0,0,1.4,2,30.42,30.42,0,0,1,2.14,2.2,1.91,1.91,0,0,1,.49,1.19,2.11,2.11,0,0,1-1,1.62,3.18,3.18,0,0,1-2,.76,8.1,8.1,0,0,1-5.26-1.8,10.65,10.65,0,0,1-3.17-4.82,43.65,43.65,0,0,1-5.18,4.59,12.13,12.13,0,0,1-4,1.48,24.73,24.73,0,0,1-4.77.47,11.31,11.31,0,0,1-6.5-2.3,11.65,11.65,0,0,1-4.55-5.39q-.08-.14-.45-1.15a9.29,9.29,0,0,1-.37-3q0-2.66.33-6.7.25-2.59.25-4.75a1.34,1.34,0,0,0-.53-1.08,1.85,1.85,0,0,0-1.19-.43,6.52,6.52,0,0,0-1.11.11,7.36,7.36,0,0,1-1.28.11A1.76,1.76,0,0,1,332,24.38Z" transform="translate(2 2)"/><path class="cls-1" d="M403.68,28.23a3.87,3.87,0,0,1-2.06-.5,9.77,9.77,0,0,1-1.81-1.51q-2.47-2.38-4.28-2.38a10,10,0,0,0-8.3,4.67,9.16,9.16,0,0,0-1.4,5,8.83,8.83,0,0,0,1.36,5A10.71,10.71,0,0,0,391.43,42a10.84,10.84,0,0,0,2.51.79,13,13,0,0,0,2.51.29,15.18,15.18,0,0,0,6-1.66,23.57,23.57,0,0,1,2.22-.86,6.21,6.21,0,0,1,1.89-.29,4,4,0,0,1,2.06.72,2.1,2.1,0,0,1,1.15,1.8,4.28,4.28,0,0,1-2.27,3.65,17.59,17.59,0,0,1-5.63,2.23,28.81,28.81,0,0,1-6.37.76,21,21,0,0,1-9-1.89,16.7,16.7,0,0,1-6.62-5.36,12.9,12.9,0,0,1-2.47-7.74A15.58,15.58,0,0,1,379.79,26a16.77,16.77,0,0,1,6.42-6,18.33,18.33,0,0,1,8.8-2.16,19.41,19.41,0,0,1,5.59.86,13.49,13.49,0,0,1,4.9,2.47,5,5,0,0,1,2,3.89Q407.38,28.23,403.68,28.23Z" transform="translate(2 2)"/><path class="cls-1" d="M440.66,45.15a15.25,15.25,0,0,1-1.4-5.44q-.33-3.35-.33-7.88V29.6q0-5.18-4-5.18a7,7,0,0,0-4.6,2.09,15.91,15.91,0,0,0-3.82,5.4A16.6,16.6,0,0,0,425,38.86a34.59,34.59,0,0,0,.25,4.32q.16,2.45.17,3.74,0,2.45-3.87,2.45a7.34,7.34,0,0,1-3.33-.72,2.14,2.14,0,0,1-1.44-1.87q.33-3.67.33-9.07l-.08-9.5q0-2.3-.41-17.06l-.21-6.64A3.4,3.4,0,0,1,418,1.74a6.17,6.17,0,0,1,3.7-1.23,4,4,0,0,1,2.63.72,2.82,2.82,0,0,1,.83,2.28q0,1.87-.08,4.36T425,11.65q-.25,3.67-.25,7.34t-.2,5.64a16.17,16.17,0,0,1,5.63-4.72,16.77,16.77,0,0,1,7.44-1.55,8.51,8.51,0,0,1,5.8,2.41,9.76,9.76,0,0,1,3.25,5.51q.16,1.58.17,4.68l-.08,5.26q0,1.23.17,3.82a5.6,5.6,0,0,0,1,2.59,5.77,5.77,0,0,0,2,2,3.48,3.48,0,0,1,1.4,1.15,2.58,2.58,0,0,1,.33,1.3,2.17,2.17,0,0,1-.74,1.48,2.53,2.53,0,0,1-1.89.76Q442.8,49.33,440.66,45.15Z" transform="translate(2 2)"/><path class="cls-1" d="M465,4.22a3.58,3.58,0,0,1,2.14,3.35,2.93,2.93,0,0,1-1.77,2.63,8.67,8.67,0,0,1-4.24,1,4.12,4.12,0,0,1-3.29-1.08A3.44,3.44,0,0,1,457,7.89a10.42,10.42,0,0,1,.54-3.6A2.26,2.26,0,0,1,460,2.92,12.82,12.82,0,0,1,465,4.22Zm1.56,30.56v2.09q0,2.81.21,5.29t.54,5q0,.86-1.15,1.55a4.24,4.24,0,0,1-2.14.68,9.88,9.88,0,0,1-3.17-.54,3,3,0,0,1-1.93-1.34,19.83,19.83,0,0,1-.49-4.1q0-5.9-.41-13.25-.33-6.48-.33-9.07a2.66,2.66,0,0,1,1.48-2.23,5.76,5.76,0,0,1,3.13-.94,4.69,4.69,0,0,1,3.33.94,4,4,0,0,1,1,3Z" transform="translate(2 2)"/><path class="cls-1" d="M479.43,62.9a8,8,0,0,1-3.17-2.16,3.72,3.72,0,0,1-1-2.2,3,3,0,0,1,1.07-2.27,3.46,3.46,0,0,1,2.38-1,2.7,2.7,0,0,1,1.44.43q.7.43.86.5a10.71,10.71,0,0,1,1.07.9,2,2,0,0,0,1.32.61,3.43,3.43,0,0,0,3-2.09,27.92,27.92,0,0,0,2.22-6.77q-5.43-7.85-10.28-16t-4.85-11A2.87,2.87,0,0,1,475,19.19a6.56,6.56,0,0,1,3.37-.86,4.5,4.5,0,0,1,2.22.47,3.25,3.25,0,0,1,1.34,1.71,116.41,116.41,0,0,0,4.69,10.91A98.1,98.1,0,0,0,492.1,41a65.58,65.58,0,0,0,3.54-9.43q1.23-3.82,2.14-6.23a30.52,30.52,0,0,1,2.06-4.43,6.45,6.45,0,0,1,1.85-2.09,4.09,4.09,0,0,1,2.43-.79,6.31,6.31,0,0,1,3.08.9q1.6.9,1.6,2.12a6.61,6.61,0,0,1-.58,1.73q-3.21,6.26-5.67,12.06a132.12,132.12,0,0,0-4.61,12.71q-1.32,3.67-2.8,7.16a35.19,35.19,0,0,1-2.06,4.36,18.61,18.61,0,0,1-3.7,3.35,8.33,8.33,0,0,1-4.77,1.33A13.35,13.35,0,0,1,479.43,62.9Z" transform="translate(2 2)"/><path class="cls-1" d="M548.19,48.32a7.65,7.65,0,0,1-3.62,1.08,14.43,14.43,0,0,1-4.89-.68,8.77,8.77,0,0,1-3.5-2.56,14,14,0,0,1-5.76,2.48,31.5,31.5,0,0,1-6.83.83,14,14,0,0,1-8.43-2.41A8.2,8.2,0,0,1,511.83,40a7.2,7.2,0,0,1,1.4-4.07,10.87,10.87,0,0,1,3.46-3.28,14.65,14.65,0,0,1,5-1.76,39.82,39.82,0,0,1,6.5-.47,17.93,17.93,0,0,1,4.11.58,21.07,21.07,0,0,1,3.78,1.22V31q0-3.89-2.18-5.36t-7-1.48a8.48,8.48,0,0,0-2.67.4,27.45,27.45,0,0,0-2.73,1.11,6.41,6.41,0,0,1-2.8.72,3.58,3.58,0,0,1-2.22-.83,2.29,2.29,0,0,1-1-1.76q0-3,4.32-4.43a28.41,28.41,0,0,1,8.84-1.4,19.85,19.85,0,0,1,5.26.83,16.37,16.37,0,0,1,5,2.27,12.89,12.89,0,0,1,3.82,4.32,11.37,11.37,0,0,1,1.36,5.47q0,.94-.16,2.81t-.17,3.46l-.08,1.94a22.55,22.55,0,0,0-.16,2.52,1.89,1.89,0,0,0,.7,1.48,2.47,2.47,0,0,0,1.69.61l2.3-.07a1.82,1.82,0,0,1,1.44.61,2.08,2.08,0,0,1,.53,1.4A3.12,3.12,0,0,1,548.19,48.32ZM529.5,43.13a31,31,0,0,0,5.76-2.38,15.34,15.34,0,0,0,.41-3.24,20.56,20.56,0,0,0-7.48-1.87q-2.8,0-4.52.18a6,6,0,0,0-3.17,1.26,4.09,4.09,0,0,0-1.4,3.46,2.7,2.7,0,0,0,1.52,2.3,5.58,5.58,0,0,0,2.92.94A23,23,0,0,0,529.5,43.13Z" transform="translate(2 2)"/></g></svg>